<svg id="f014dd1b-48a1-4ebf-87c9-35b105a591fd" data-name="Layer 1" xmlns="http://www.w3.org/2000/svg" width="247.85mm" height="247.85mm" viewBox="0 0 702.57 702.57">
  <path d="M838,616.51a222.78,222.78,0,0,0-41,3.78A221.7,221.7,0,0,1,620.31,797a222.78,222.78,0,0,0-3.78,41c0,122.31,99.15,221.47,221.46,221.47S1059.46,960.28,1059.46,838,960.3,616.51,838,616.51ZM579.35,357.87C457,357.87,357.89,457,357.89,579.33S457,800.8,579.35,800.8a222.89,222.89,0,0,0,41-3.78A221.68,221.68,0,0,1,797,620.29a222.89,222.89,0,0,0,3.78-41C800.82,457,701.66,357.87,579.35,357.87Z" transform="translate(-357.39 -357.37)" style="fill: none;stroke: #000000;stroke-miterlimit: 10"/>
  <path d="M579.35,357.87C457,357.87,357.89,457,357.89,579.33V357.87Z" transform="translate(-357.39 -357.37)" style="fill: #000000;stroke: #000000;stroke-miterlimit: 10"/>
  <path d="M1059.46,838v221.47H838C960.3,1059.44,1059.46,960.28,1059.46,838Z" transform="translate(-357.39 -357.37)" style="fill: #000000;stroke: #000000;stroke-miterlimit: 10"/>
  <path d="M838,616.51a222.78,222.78,0,0,0-41,3.78A221.7,221.7,0,0,1,620.31,797a222.78,222.78,0,0,0-3.78,41c0,122.31,99.15,221.47,221.46,221.47S1059.46,960.28,1059.46,838,960.3,616.51,838,616.51ZM579.35,357.87C457,357.87,357.89,457,357.89,579.33S457,800.8,579.35,800.8a222.89,222.89,0,0,0,41-3.78A221.68,221.68,0,0,1,797,620.29a222.89,222.89,0,0,0,3.78-41C800.82,457,701.66,357.87,579.35,357.87Zm0,0C457,357.87,357.89,457,357.89,579.33S457,800.8,579.35,800.8a222.89,222.89,0,0,0,41-3.78A221.68,221.68,0,0,1,797,620.29a222.89,222.89,0,0,0,3.78-41C800.82,457,701.66,357.87,579.35,357.87ZM838,616.51a222.78,222.78,0,0,0-41,3.78A221.7,221.7,0,0,1,620.31,797a222.78,222.78,0,0,0-3.78,41c0,122.31,99.15,221.47,221.46,221.47S1059.46,960.28,1059.46,838,960.3,616.51,838,616.51Z" transform="translate(-357.39 -357.37)" style="fill: none;stroke: #000000;stroke-miterlimit: 10"/>
  <path d="M800.82,579.33a222.89,222.89,0,0,1-3.78,41A221.68,221.68,0,0,0,620.31,797a222.89,222.89,0,0,1-41,3.78c-122.31,0-221.46-99.16-221.46-221.47S457,357.87,579.35,357.87,800.82,457,800.82,579.33Z" transform="translate(-357.39 -357.37)" style="fill: #000000;stroke: #000000;stroke-miterlimit: 10"/>
  <path d="M797,620.29A221.7,221.7,0,0,1,620.31,797,221.68,221.68,0,0,1,797,620.29Z" transform="translate(-357.39 -357.37)" style="fill: #000000;stroke: #000000;stroke-miterlimit: 10;opacity: 0.94"/>
  <path d="M1059.46,838c0,122.31-99.16,221.47-221.47,221.47S616.53,960.28,616.53,838a222.78,222.78,0,0,1,3.78-41A221.7,221.7,0,0,0,797,620.29a222.78,222.78,0,0,1,41-3.78C960.3,616.51,1059.46,715.66,1059.46,838Z" transform="translate(-357.39 -357.37)" style="fill: #000000;stroke: #000000;stroke-miterlimit: 10"/>
</svg>
